<?xml version="1.0" standalone="no"?>
<!DOCTYPE svg PUBLIC "-//W3C//DTD SVG 20010904//EN"
 "http://www.w3.org/TR/2001/REC-SVG-20010904/DTD/svg10.dtd">
<svg version="1.0" xmlns="http://www.w3.org/2000/svg"
 width="400.000000pt" height="400.000000pt" viewBox="0 0 400.000000 400.000000"
 preserveAspectRatio="xMidYMid meet">

<g transform="translate(0.000000,400.000000) scale(0.100000,-0.100000)"
fill="#000000" stroke="none">
<path d="M1353 3260 c-28 -12 -56 -66 -55 -107 2 -58 27 -92 77 -104 l45 -11
0 -92 c0 -186 -46 -430 -100 -536 -10 -19 -32 -48 -49 -64 -28 -26 -34 -28
-82 -23 -33 4 -63 16 -85 32 -44 34 -35 50 14 25 66 -34 104 -35 140 -5 40 33
81 117 88 182 l6 50 -76 86 c-54 61 -82 102 -98 144 -23 62 -48 100 -48 73 -3
-107 -23 -227 -54 -315 -20 -55 -36 -109 -36 -120 0 -29 -14 -47 -32 -40 -26
10 -139 151 -229 285 -57 85 -85 119 -87 107 -2 -10 8 -35 21 -55 14 -20 34
-59 45 -87 11 -27 45 -111 77 -185 31 -74 67 -164 80 -200 13 -36 40 -108 60
-160 20 -52 48 -129 62 -170 14 -41 36 -100 49 -131 13 -31 27 -71 30 -89 l7
-32 52 6 c29 3 97 15 151 26 189 38 358 53 604 54 314 0 538 -24 583 -62 14
-12 15 -17 5 -24 -7 -5 -188 -6 -403 -3 -214 3 -464 2 -555 -2 l-165 -8 -9
-113 c-4 -63 -4 -142 0 -180 l9 -67 40 -3 40 -3 22 78 c12 43 31 99 42 126
l20 47 151 0 151 0 -3 -480 -3 -480 -31 -30 c-27 -28 -38 -32 -115 -38 l-84
-7 -3 -47 c-4 -58 -4 -58 168 -54 69 1 229 3 356 4 l232 2 5 38 c6 53 -5 62
-81 62 -79 0 -122 24 -149 85 -16 36 -18 78 -18 486 0 246 2 449 5 452 7 7
245 15 274 10 33 -7 82 -108 90 -187 4 -33 9 -62 11 -65 9 -8 79 -1 89 9 6 6
12 62 14 128 1 64 5 127 7 139 4 16 34 35 120 77 63 30 115 57 115 60 0 22
-148 67 -360 111 -326 68 -965 53 -1241 -29 -68 -21 -76 -20 -89 5 -15 28 0
45 48 54 20 3 74 17 118 31 229 68 821 70 1212 4 95 -17 190 -30 210 -29 l37
1 -44 20 c-24 11 -80 26 -125 33 -44 7 -116 23 -159 34 -44 11 -127 25 -185
31 -59 6 -156 18 -216 26 -169 22 -367 28 -506 15 -168 -16 -336 -47 -382 -71
-45 -23 -68 -25 -68 -6 0 8 -16 49 -36 92 -20 44 -54 120 -76 169 -22 50 -54
120 -71 157 -17 37 -27 71 -24 75 4 4 45 -29 90 -74 153 -150 230 -172 315
-90 65 62 97 158 122 364 6 48 17 124 26 169 14 74 14 84 0 119 -23 55 -20 69
19 88 20 9 40 28 45 43 13 33 13 100 0 125 -23 41 -110 62 -167 39z m111 -56
c20 -20 20 -73 0 -102 -21 -30 -68 -29 -99 3 -48 47 -22 115 45 115 22 0 45
-7 54 -16z"/>
<path d="M1895 3244 c-26 -26 -16 -76 19 -93 34 -16 53 -8 75 31 13 23 13 29
-2 52 -20 30 -66 35 -92 10z"/>
<path d="M2313 3245 c-28 -19 -43 -74 -36 -123 7 -44 24 -66 64 -82 16 -7 29
-17 29 -22 0 -6 -18 -56 -39 -112 -21 -55 -50 -135 -64 -176 -59 -177 -101
-272 -157 -355 -44 -65 -121 -133 -165 -148 -89 -31 -191 43 -289 211 -25 43
-46 85 -46 93 0 8 -11 35 -24 60 -14 25 -36 81 -50 125 -36 108 -46 121 -46
61 0 -31 11 -75 29 -120 16 -40 32 -85 36 -101 13 -59 110 -220 167 -278 73
-73 109 -92 179 -92 44 -1 64 5 97 26 121 80 236 265 295 476 47 164 70 199
82 125 4 -21 17 -83 30 -138 13 -55 26 -117 30 -137 3 -21 18 -61 33 -91 15
-29 33 -66 39 -82 22 -52 87 -113 134 -125 150 -41 300 76 540 418 17 24 32
42 34 40 3 -2 -7 -31 -20 -64 -14 -32 -25 -66 -25 -75 0 -10 -16 -58 -35 -108
-19 -49 -35 -96 -35 -103 0 -23 17 7 45 77 15 39 40 97 55 130 15 33 33 78 40
100 7 22 16 45 20 50 5 6 27 55 50 110 58 140 62 145 115 145 61 0 89 13 114
53 35 57 24 123 -29 164 -8 7 -39 13 -68 13 -48 0 -58 -4 -88 -34 -41 -41 -44
-79 -13 -144 l22 -44 -63 -91 c-145 -211 -337 -447 -420 -516 -156 -130 -236
-136 -320 -24 -78 105 -79 134 0 44 67 -77 111 -97 172 -75 23 8 63 28 88 44
51 33 180 161 180 179 0 14 -43 82 -85 136 -45 56 -63 99 -75 180 -6 39 -15
74 -20 79 -6 6 -18 -9 -31 -38 -11 -26 -33 -67 -49 -89 -15 -23 -49 -75 -76
-116 -62 -96 -153 -203 -166 -195 -31 19 -71 188 -108 453 -12 83 -5 101 40
101 38 0 62 31 68 90 6 60 -11 103 -44 119 -36 16 -116 14 -141 -4z m105 -36
c22 -7 33 -19 37 -39 14 -65 -49 -119 -100 -86 -47 31 -42 119 7 129 13 2 23
5 24 6 1 0 15 -4 32 -10z m1085 -90 c22 -28 22 -50 -4 -83 -28 -36 -91 -37
-114 -2 -24 36 -16 87 15 104 32 16 80 8 103 -19z"/>
<path d="M526 3109 c-64 -51 -70 -119 -14 -176 29 -30 37 -33 94 -33 60 0 62
1 88 38 39 56 36 110 -8 156 -30 32 -39 36 -83 36 -36 0 -58 -6 -77 -21z m114
-39 c54 -29 45 -100 -15 -120 -56 -18 -105 14 -105 69 0 48 70 78 120 51z"/>
<path d="M1067 3082 c-10 -10 -17 -33 -17 -50 0 -27 6 -35 35 -49 l36 -17 24
29 c30 37 31 59 5 85 -25 25 -62 26 -83 2z"/>
<path d="M2796 3078 c-21 -30 -20 -71 2 -99 l19 -22 36 28 c43 32 46 56 12 90
-30 31 -49 32 -69 3z"/>
<path d="M1920 2979 c-37 -141 -119 -315 -201 -428 -50 -70 -51 -99 0 -162 83
-104 162 -150 224 -130 46 16 154 130 196 208 10 20 6 30 -38 90 -77 107 -98
157 -131 313 -17 79 -33 146 -35 148 -2 2 -9 -16 -15 -39z"/>
</g>
</svg>
